<svg xmlns="http://www.w3.org/2000/svg" width="689.3" height="395.264" viewBox="0 0 689.3 395.264"><g transform="translate(-155.35 -302.366)"><path d="M208.96,620.41H172.93l-6.27,13.97H155.35l29.85-66.54h11.6l29.85,66.54H215.34Zm-17.97-41.35-14.07,31.65h28.14Z" fill="#7b2a8e"/><path d="M246.5,567.84v56.65h35.08v9.89H235.86V567.84H246.5Z" fill="#7b2a8e"/><path d="M302.3,567.84v56.65h35.08v9.89H291.66V567.84H302.3Z" fill="#7b2a8e"/><path d="M404.86,634.38H392.4l-20.25-23H358.08v23H347.43V567.75c10.36,0,20.63.09,30.99.09,15.4,0,23.48,10.55,23.48,21.77,0,9.51-4.94,18.82-18.06,20.72l19.87,22.15Zm-46.77-56.84v24.14h20.25c8.84,0,12.74-5.61,12.74-11.88,0-5.99-3.9-12.26-12.64-12.26Z" fill="#7b2a8e"/><path d="M465.12,634.38H415.98V567.84h48.86V578.2H426.63v17.96h36.69v9.89H426.63v17.87h38.5v10.46Z" fill="#7b2a8e"/><path d="M518.54,582.57c-3.14-4.56-9.51-7.32-16.44-7.41-8.94,0-15.4,3.71-15.4,10.08,0,6.46,7.41,8.27,16.16,9.51,13.69,1.9,26.71,5.7,26.71,20.63-.1,14.92-13.69,20.53-27.57,20.53-12.74,0-22.53-3.9-28.61-15.11l7.98-5.32c4.75,8.08,13.02,10.93,20.72,10.93,7.98,0,16.82-2.66,16.82-11.03,0-7.22-7.7-9.69-17.01-10.93-13.21-1.81-25.76-5.13-25.76-19.39-.09-13.78,13.69-19.11,25.66-19.11,9.6,0,19.2,2.28,24.81,11.22Z" fill="#7b2a8e"/><path d="M597.14,567.94v38.88c0,19.58-12.93,29.37-28.99,28.8-14.83-.38-27.47-9.89-27.47-28.8V567.94h10.55v38.88c0,12.07,7.03,18.63,16.92,19.01,10.65.57,18.44-6.37,18.44-19.01V567.94Z" fill="#7b2a8e"/><path d="M670.9,583.43l-22.62,31.46H646l-22.34-31.46v51.04H613.01V567.93h12.36l21.96,31.18,21.86-31.18h12.36v66.54H670.9Z" fill="#7b2a8e"/><path d="M747.42,634.38H698.28V567.84h48.86V578.2H708.93v17.96h36.69v9.89H708.93v17.87h38.5v10.46Z" fill="#7b2a8e"/><path d="M807.2,620.41H771.17l-6.27,13.97H753.59l29.85-66.54h11.6l29.85,66.54H813.58Zm-17.96-41.35-14.07,31.65h28.14Z" fill="#7b2a8e"/><path d="M834.1,634.38V567.84h10.55v66.54Z" fill="#7b2a8e"/><path d="M183.5,664.62c-1.94-2.82-5.88-4.53-10.18-4.59-5.53,0-9.53,2.29-9.53,6.24,0,4,4.59,5.12,10,5.88,8.47,1.18,16.54,3.53,16.54,12.77-.06,9.24-8.47,12.71-17.07,12.71-7.89,0-13.95-2.41-17.71-9.36l4.94-3.3c2.94,5,8.06,6.77,12.83,6.77,4.94,0,10.42-1.65,10.42-6.83,0-4.47-4.77-6-10.53-6.77-8.18-1.12-15.95-3.18-15.95-12.01-.06-8.53,8.47-11.83,15.89-11.83,5.94,0,11.89,1.41,15.36,6.94Z" fill="#158ea9"/><path d="M284.67,696.69H254.24v-41.2h30.25v6.42H260.83v11.12h22.72v6.12H260.83v11.06h23.83v6.48Z" fill="#158ea9"/><path d="M385.18,696.69h-7.71l-12.54-14.24h-8.71v14.24h-6.59V655.44c6.41,0,12.77.06,19.19.06,9.53,0,14.54,6.53,14.54,13.48,0,5.88-3.06,11.65-11.18,12.83l12.3,13.71ZM356.23,661.5v14.95h12.54c5.47,0,7.89-3.47,7.89-7.36,0-3.71-2.41-7.59-7.83-7.59Z" fill="#158ea9"/><path d="M466.93,696.87h-6.89L442.91,655.5h7.42l13.12,33.49,13.18-33.49h7.36Z" fill="#158ea9"/><path d="M546.37,696.69v-41.2h6.53v41.2Z" fill="#158ea9"/><path d="M654.42,691.4a21.59,21.59,0,0,1-15.48,6.12c-14.95,0-21.66-10.3-21.72-21.13s7-21.6,21.72-21.6a21.07,21.07,0,0,1,15.07,6.24l-4.41,4.24a15.153,15.153,0,0,0-10.65-4.24c-10.48,0-15.24,7.71-15.18,15.3.06,7.53,4.53,15.01,15.18,15.01a16,16,0,0,0,10.95-4.47Z" fill="#158ea9"/><path d="M748.05,696.69H717.63v-41.2h30.25v6.42H724.22v11.12h22.72v6.12H724.22v11.06h23.83v6.48Z" fill="#158ea9"/><path d="M837.62,664.62c-1.94-2.82-5.89-4.53-10.18-4.59-5.53,0-9.53,2.29-9.53,6.24,0,4,4.59,5.12,10,5.88,8.47,1.18,16.54,3.53,16.54,12.77-.06,9.24-8.47,12.71-17.07,12.71-7.89,0-13.95-2.41-17.71-9.36l4.94-3.3c2.94,5,8.06,6.77,12.83,6.77,4.94,0,10.42-1.65,10.42-6.83,0-4.47-4.77-6-10.53-6.77-8.18-1.12-15.95-3.18-15.95-12.01-.06-8.53,8.47-11.83,15.89-11.83,5.94,0,11.89,1.41,15.36,6.94Z" fill="#158ea9"/><path d="M497.22,380.93s-.02-.02-.02,0a3.854,3.854,0,0,0-1.8.63,3.592,3.592,0,0,0-1.11,1.39.59.59,0,0,0-.02.14c-.09.01-.19.01-.28.02a1.3,1.3,0,0,1-.18.15c-.47.23-.93.49-1.38.76-.59.35-1.17.72-1.74,1.12a10.651,10.651,0,0,1-4.81,1.72c-.81.11-1.62.25-2.48.39a4.142,4.142,0,0,1-2.88,2.66,3.912,3.912,0,0,1-3.81-1.07,12.823,12.823,0,0,0-3.61,2.02,21.221,21.221,0,0,0-3.79,4.13,15.706,15.706,0,0,0-1.62,2.7,2.374,2.374,0,0,0-.25,1.91c.05.06.1.12.15.19a4.48,4.48,0,0,0-.68,2.22,3.448,3.448,0,0,0,1.11,2.57.786.786,0,0,0-.08-.48,3.237,3.237,0,0,1-.12-2.72.771.771,0,0,1,.61-.59c.23.61-.19,1.14-.15,1.71a2.209,2.209,0,0,0,.41-1.98c.15.01.3.02.46.04.31.02.39-.22.5-.43a33.118,33.118,0,0,1,2.86-4.46,11.788,11.788,0,0,1,1.91-2.02c.2-.16.43-.25.64-.4.13-.1.25-.01.46-.02-.44.52-.79,1.01-1.18,1.46a12.539,12.539,0,0,0-3.01,6.47,16.69,16.69,0,0,1-.75,3.12,12.219,12.219,0,0,0-.59,2.68c-.16,1.28-.29,2.57-.57,3.84a10.226,10.226,0,0,1-1.88,3.36,22.47,22.47,0,0,0-3.37,6.83c.87,1.17,1.62,2.45,2.62,3.55a2.348,2.348,0,0,0,.62.51.539.539,0,0,0,.85-.27,1.763,1.763,0,0,0,.13-1.06,6.813,6.813,0,0,0-1.07-2.53c.45-.63.89-1.25,1.34-1.88,1.15-1.62,2.28-3.26,3.33-4.94.13-.21.25-.44.38-.65a15.465,15.465,0,0,0,2.08-4.38,4.891,4.891,0,0,0,.16-.93,4.119,4.119,0,0,1,2.09-3.19,16.639,16.639,0,0,1,6.25,2.63,5.383,5.383,0,0,0,1.08.66,1.518,1.518,0,0,1,.68.67,43.777,43.777,0,0,0,2.53,3.93c.11.15.24.29.36.44a10.279,10.279,0,0,0,2.51,2.59c.61-1.03,1.21-2.03,1.75-3.06a8.381,8.381,0,0,0,.64-1.47,2.059,2.059,0,0,0,.1-.89.73.73,0,0,0-1.14-.53,2.323,2.323,0,0,0-.69.77,10.536,10.536,0,0,0-.87,1.82,11.8,11.8,0,0,1-.59-1.18c-.73-1.78-1.44-3.57-2.29-5.29a8.6,8.6,0,0,0-6.28-4.64,11.886,11.886,0,0,0-1.92-.2,15.1,15.1,0,0,1,4.38-7.29,16.849,16.849,0,0,0,1.29-1.38,18.376,18.376,0,0,1,4.27-3.03,39.2,39.2,0,0,0,4.96-3.4c.59-.47,1.17-.94,1.74-1.43l-.04-.11a.879.879,0,0,1-.05-.15l-.08-.22a1.592,1.592,0,0,0-.13-.13,2.715,2.715,0,0,0,1.28-1.63,7.923,7.923,0,0,1-1.16,1.02.277.277,0,0,1-.12-.39,2.927,2.927,0,0,1,.92-1.28,11.611,11.611,0,0,1,1.2-.65l.13-.07.72-.39A2.491,2.491,0,0,0,497.22,380.93Z" fill="#7b2a8e"/><rect width="18.86" height="18.86" transform="translate(444.89 366.06)" fill="#7b2a8e"/><rect width="27" height="27" transform="translate(378.51 349.05)" fill="#7b2a8e"/><rect width="27" height="27" transform="translate(436.38 319.65)" fill="#7b2a8e"/><rect width="19.23" height="19.23" transform="translate(395.71 306.34)" fill="#7b2a8e"/><rect width="11.83" height="11.83" transform="translate(433.61 394.91)" fill="#7b2a8e"/><path d="M523.2,503.09l-20.18,2.52c-.4.06-.79.13-1.18.19v2.82h27V501.3a41.207,41.207,0,0,1-5.35,1.72Z" fill="#7b2a8e"/><path d="M579.5,395.09a98.393,98.393,0,0,1-12.2,20.39,166.29,166.29,0,0,1-27,27.29c-3.78,3.09-7.62,6.03-11.46,8.81a307.134,307.134,0,0,1-27,17.35c-3.99,2.29-7.73,4.33-11.09,6.09-9.65,5.07-16.24,7.93-16.95,8.24.71-.14,7.94-.25,16.95-.33,16.13-.14,37.9-.2,37.9-.2V472.19c.06-.05.12-.1.18-.16q6.225-5.205,11.46-10.22v46.26q11.37-1.755,24.16-4.86l1.59-.39c.42-.11.83-.21,1.25-.32V429.17C579.9,408.48,579.5,395.09,579.5,395.09Z" fill="#7b2a8e"/><path d="M588.27,502c-4.82,1.49-10.14,3.03-15.8,4.53-1.7.45-3.42.89-5.18,1.33-.53.13-1.07.26-1.61.4-29.51,7.2-65.67,11.96-86.96,0,0,0,.28-4.1,23.11-7.69.16-.02.3-.05.46-.07l19.97-2.5a41.347,41.347,0,0,0,6.56-2.32c4.34-1.98,9.16-5.24,8.69-9.89l-8.69.26-27,.81-20.06.6s-25.79,0-42.71,7.49c0,0-26.26-27.27-27.83-70.63H382.38s.37,106.13,107.98,122.22c0,0,64.9,12.76,123.14-53.25C613.52,493.27,603.36,497.34,588.27,502Z" fill="#7b2a8e"/><path d="M619.07,377.34C571.7,277.15,472.83,306,469.92,306.87V328.5c97.02-39.5,142.49,42.92,142.49,42.92,32.38,62.39-2.6,111.86-9.01,120.08-.62.79-.98,1.21-.98,1.21l8.14-2.96c.26-.39.5-.79.76-1.18C645.66,434.92,619.07,377.34,619.07,377.34Z" fill="#7b2a8e"/><path d="M439.34,491.42l4.25-1.48s-28.1-28.29-26.72-66.01h-2.22C414.66,423.94,413.46,463.87,439.34,491.42Z" fill="#158ea9"/><rect width="23.67" height="23.67" transform="translate(398.3 394.72)" fill="#158ea9"/><rect width="20.52" height="20.52" transform="translate(411.33 352.66)" fill="#158ea9"/><rect width="12.94" height="12.94" transform="translate(371.11 324.27)" fill="#158ea9"/><path d="M528.84,393.98h-27v69.01a290.225,290.225,0,0,0,27-17.76Z" fill="#158ea9"/><path d="M567.29,406.62V369.58h-27v66.53C550.58,427.35,560.11,417.45,567.29,406.62Z" fill="#158ea9"/><path d="M504.98,332.59c51.57,0,93.38,41.47,93.38,92.64a91.891,91.891,0,0,1-25.89,63.98v11.93c9.34-2.51,17.72-5.14,24.31-7.35A103.391,103.391,0,0,0,469.91,333.61v5.75A93.954,93.954,0,0,1,504.98,332.59Z" fill="#158ea9"/><path d="M463.75,425.79v56.82l5.66-2.81,4.68-2.33c3.14-1.43,9.1-4.24,16.66-8.28v-43.4h-27Z" fill="#158ea9"/><path d="M522.2,370.67a.166.166,0,0,0,.16.06A.123.123,0,0,0,522.2,370.67Z" fill="none"/><path d="M509.13,368.19a2.668,2.668,0,0,0,1.3-1.74A3.771,3.771,0,0,1,509.13,368.19Z" fill="none"/><path d="M527.19,392.73c-.73-2.48-1.47-4.96-2.19-7.44-.57-1.94-1.12-3.88-1.68-5.82-.03-.09-.06-.17-.09-.26-.39-1.39-.78-2.79-1.18-4.18a3.377,3.377,0,0,0-.8-1.37c-1.2-1.22-2.36-2.47-3.44-3.8a17.417,17.417,0,0,1-1.51-2.29,3.068,3.068,0,0,1-.25-.58,2.372,2.372,0,0,1,1.13.14,7.089,7.089,0,0,1,2.49,1.45,11.882,11.882,0,0,1,1.62,1.63.989.989,0,0,0,.55.37c.08.03.15.06.23.09a2.3,2.3,0,0,0,.39,1.67c.03-.45-.31-.85-.16-1.33.24-.06.33.12.41.27a2.411,2.411,0,0,1,.13,2.3.475.475,0,0,0-.05.37c.19-.03.24-.19.32-.31a2.693,2.693,0,0,0,.25-2.71c-.06-.14-.14-.24-.3-.24a.565.565,0,0,1,.33-.13c.12-.14.02-.27-.02-.39a10.936,10.936,0,0,0-.89-1.86,7.313,7.313,0,0,0-2.11-2.38,10.484,10.484,0,0,0-5.06-1.99,7.267,7.267,0,0,0-2.67.05,6.491,6.491,0,0,0-1.99.89c.01.11.03.21.03.32a3.754,3.754,0,0,1-.23,1.26,2.668,2.668,0,0,1-1.3,1.74,3.748,3.748,0,0,1-2.1.73c-.34.36-.69.71-1.02,1.08-.48.54-1,1.04-1.49,1.57s-.99,1.03-1.47,1.56a31.024,31.024,0,0,0-2.33,2.77c-.16.21-1.02,1.51-1.32,1.92l.05.08a.414.414,0,0,1,.07.11l.1.16c.04.03.08.05.12.08a2.2,2.2,0,0,0-.69,1.52,6.266,6.266,0,0,1,.71-1.03.23.23,0,0,1,.17.28,2.237,2.237,0,0,1-.48,1.18,9.6,9.6,0,0,1-.82.74l-.09.08-.49.45a2.464,2.464,0,0,0,.71-.18s.02.01.02-.01a3.177,3.177,0,0,0,1.29-.84,3,3,0,0,0,.61-1.3c.01-.04-.01-.07-.01-.11a1.864,1.864,0,0,0,.22-.07c.04-.05,1.05-1.01,1.05-1.01.5-.43,4.91-4.29,6.53-5.88a3.037,3.037,0,0,0,.51-.56.336.336,0,0,1,.26-.01,9.688,9.688,0,0,1,3.76,1.72,3.438,3.438,0,0,1,1.19,1.55,23.836,23.836,0,0,0-3.76,4.62,8.255,8.255,0,0,0-1.06,2.27c-.01.08-.09.14-.13.23a1.929,1.929,0,0,0,.07,1.64c.65,1.26,1.25,2.56,1.99,3.78a.237.237,0,0,0,.09.15.2.2,0,0,0,.09.16c.48.92,1.05,1.8,1.57,2.69.06.1.12.19.2.32-.26.11-.52.22-.77.33a5.252,5.252,0,0,0-1.41.82.77.77,0,0,0-.28.95c.16.04.32-.06.47.01.21-.17.48-.13.72-.18a12.8,12.8,0,0,0,3.02-.9,2.793,2.793,0,0,0,.74-.46c0-.03.02-.07.01-.08a32.224,32.224,0,0,1-1.29-3.3.347.347,0,0,0-.08-.16c0-.08,0-.15-.08-.2-.12-.62-.34-1.19-.51-1.79-.27-.98-.56-1.96-.79-2.97a12.976,12.976,0,0,0,4.09-5.38.075.075,0,0,1,.09.05c.75,1.7,1.69,3.31,2.58,4.93.28.5.57,1,.86,1.49.47.87.96,1.74,1.42,2.61a32.294,32.294,0,0,1,1.92,4.03,3.744,3.744,0,0,1,.19.75.624.624,0,0,1-.1.48c-.66.26-1.49-.03-2.18.37a1.144,1.144,0,0,0,.77.88,3.384,3.384,0,0,0,1.51.21,9.623,9.623,0,0,1,1.52.1,5.24,5.24,0,0,0,1.37.03.251.251,0,0,0,.22-.11A.763.763,0,0,0,527.19,392.73Zm-4.83-22a.148.148,0,0,1-.16-.06A.123.123,0,0,1,522.36,370.73Z" fill="#7b2a8e"/><path d="M509.91,365.19a2.99,2.99,0,1,0-2.99,2.99A2.992,2.992,0,0,0,509.91,365.19Z" fill="#7b2a8e"/><ellipse cx="3.24" cy="3.71" rx="3.24" ry="3.71" transform="translate(476.44 381.92)" fill="#7b2a8e"/></g></svg>